<svg version="1.1" id="Layer_1" xmlns="http://www.w3.org/2000/svg" x="0" y="0" viewBox="0 0 107 153" xml:space="preserve"><style>.st0{fill:#efd68b}</style><path class="st0" d="M55 126.4v3.6h-7.7v-3.4l7.7-.2zm0-5.4v3.7l-7.7.2v-3.7l7.7-.2zm0-5.4v3.7l-7.7.2V116l7.7-.4zm0-5.5v3.7l-7.7.3v-3.6l7.7-.4zm0-5.5v3.8l-7.7.4v-3.7l7.7-.5zm0-5.9v4.2l-7.7.5v-3.9l7.7-.8zm0-5.8v4l-7.7.7v-3.7l7.7-1zm0-5.9v4.2l-7.7 1v-3.9L55 87zm0-37.7v6.5L32.5 67.3l-2.3-.7v-2.7L55 49.3zm0-8.8v6.8L30.1 61.8v-4.6L55 40.5zm0-7.2v5L30.1 55v-5L55 33.3zm0-9.2v7L30.1 47.8v-4.2L55 24.1zm0-10.6v8.2L30.1 41.2v-4.6L55 13.5zm22.2 112.3v4.2H60.4v-3.8l16.8-.4zm0-5.4v3.7l-16.8.4v-3.7l16.8-.4zm0-44v6.9l-16.8 2.9v-3.7l14.7-5.3 2.1-.8zm-3.9 1.4L68 79.6v-4.2l5.3 2.4zm18.4-19.5v5.3L68 51.9v-7l20.1 11.4.2.1h.1l.3.2 3 1.7zM26 127.2v2.9H2.5v-2.2l23.5-.7zm0-5.4v3.7l-23.5.6v-3.7l23.5-.6zm0-5.1v3.3l-23.5.6v-3l23.5-.9zm0-51L6.4 78.8 26 65.7z"/><path d="M13.1 146.4c0-2.4 0-4.9.1-6.2h-.1c-.6 2.1-2.7 7.7-4.2 11.8H7.4c-1.1-3.3-3.3-9.6-3.9-11.8.1 1.5.1 4.4.1 6.6v5.2H2v-13h2.6c1.5 4 3.3 9.3 3.7 10.9.3-1.3 2.5-7 4-10.9h2.5v13h-1.7v-5.6zm7-7.4v13h-1.7v-13h1.7zm5.2 9.1l-1.4 3.9h-1.7l4.6-13H29l4.8 13H32l-1.4-3.9h-5.3zm4.8-1.5c-1.3-3.4-1.9-5.2-2.2-6.2-.3 1.1-1.1 3.3-2.1 6.2h4.3zm10.5-7.6h1.7v5.4h6.8V139h1.7v13h-1.7v-6.1h-6.8v6.1h-1.7v-13zm25 6.4c0 3.6-2 6.8-6.1 6.8-3.8 0-6-3-6-6.7s2.2-6.7 6.1-6.7c3.7 0 6 2.7 6 6.6zm-10.3 0c0 2.8 1.4 5.3 4.2 5.3 3 0 4.2-2.5 4.2-5.3s-1.4-5.2-4.2-5.2c-2.9.1-4.2 2.4-4.2 5.2zm24.1 1c0-2.4 0-4.9.1-6.2h-.1c-.6 2.1-2.7 7.7-4.2 11.8h-1.5c-1.1-3.3-3.3-9.6-3.9-11.8h-.1c.1 1.5.1 4.4.1 6.6v5.2h-1.6v-13h2.6c1.5 4 3.3 9.3 3.7 10.9.3-1.3 2.5-7 4-10.9H81v13h-1.7v-5.6zm13.4-.5h-6.5v4.6h7.1l-.2 1.5h-8.6v-13h8.5v1.5h-6.8v4h6.5v1.4zm4 2.4c.3 1.6 1.4 2.4 3.3 2.4 2 0 2.8-1 2.8-2.2 0-1.3-.6-2-3.3-2.7-3.1-.7-4.1-1.8-4.1-3.6 0-1.9 1.4-3.5 4.3-3.5 3.1 0 4.4 1.8 4.6 3.5h-1.8c-.2-1.1-1-2.1-2.9-2.1-1.6 0-2.5.7-2.5 1.9s.7 1.7 3 2.3c3.7.9 4.4 2.3 4.4 4 0 2.1-1.5 3.7-4.7 3.7-3.3 0-4.7-1.8-5-3.8l1.9.1z" fill="#fff"/><path class="st0" d="M104.1 92.9v2.2l-6.5-1.7v-2.6l6.5 2.1zM91.7 65.6v5.1L68 59.3v-5.4l23.7 11.7zm0 7v4.8L68 66.5v-5.3l23.7 11.4zm0 6.8v2.4l-14.5-5.4-2.1.7L68 74v-5.5l23.7 10.9zm12.4 47.3v3.3h-6.5v-3.6l6.5.3zm0-4.9v3.3l-6.5-.3v-3.3l6.5.3zm0-4.9v3.3l-6.5-.3v-3.3l6.5.3zm0-5v3.3l-6.5-.3v-3.6l6.5.6zm0-5v3.3l-6.5-.6V106l6.5.9zm0-5v3.3l-6.5-.9v-3.9l6.5 1.5zm0-5.1v3.4l-6.5-1.5v-3.6l6.5 1.7zm-26.9 17.9v3.9l-16.8.4v-3.7l16.8-.6zm0-5.6v3.9l-16.8.6v-3.7l16.8-.8zM26 111.5v3.4l-23.5.9v-3.1l23.5-1.2zm51.2-8.3v4.1l-16.8.8v-3.8l16.8-1.1zM26 106.4v3.4l-23.5 1.1v-3.1l23.5-1.4zm51.2-9.2v4.3l-16.8 1v-3.8l16.8-1.5zM26 101.3v3.3L2.5 106v-2.6l23.5-2.1zm51.2-10.2v4.3l-16.8 1.5v-3.7l16.8-2.1zM26 96.7v2.9l-23.5 2.2v-2L26 96.7zm51.2-11.6v4.3l-16.8 2.2V88l16.8-2.9zM26 91.9v3L2.5 98v-2.1l23.5-4zm0-5v3.3l-23.5 4V92L26 86.9zm29-6.4v4.7l-7.7 1.3v-4.3l7.7-1.7zm-29 .8V85L2.5 90.2v-2.6L26 81.3zm29-7.7v5.1l-7.7 1.7v-4.8l7.7-2zm-29 .7v5.2L2.5 85.8v-2L26 74.3zm29-8.5v6l-7.7 2.1V73l-5.7-1.8L55 65.8zm-29-.1v6.8L2.5 82v-.5l1.3-.9.3-.2.9-.6.7-.5.5-.3.2-.2L26 65.7zm29-8.1v6.3l-15.2 6.2-5.6-1.8L55 57.6z"/><path class="st0" d="M106.1 130.1h-4V4H4.5v126.1h-4V0h105.6z"/></svg>