<svg xmlns="http://www.w3.org/2000/svg" viewBox="0 0 24 24"><path d="M17.4 14.4c-.3-.1-1.8-.9-2-1-.3-.1-.5-.1-.7.1-.2.3-.8 1-.9 1.2-.2.2-.3.2-.6.1s-1.3-.5-2.4-1.5c-.9-.8-1.5-1.8-1.7-2.1-.2-.3 0-.5.1-.6.1-.1.3-.3.4-.5.2-.1.3-.3.4-.5.1-.2.1-.4 0-.5-.1-.1-.7-1.6-1-2.2-.2-.6-.5-.5-.6-.5h-.6c-.2 0-.5.1-.8.4-.3.3-1 1-1 2.5s1.1 2.9 1.2 3.1c.1.2 2.1 3.2 5.1 4.5.7.3 1.3.5 1.7.6.7.2 1.4.2 1.9.1.6-.1 1.8-.7 2-1.4.2-.7.2-1.3.2-1.4-.2-.2-.4-.3-.7-.4zM12 21.8c-1.8 0-3.5-.5-5-1.4l-.4-.2-3.7 1 1-3.6-.2-.4c-1-1.6-1.5-3.4-1.5-5.3C2.1 6.4 6.5 2 12 2c2.6 0 5.1 1 7 2.9 1.9 1.9 2.9 4.4 2.9 7 0 5.4-4.5 9.9-9.9 9.9zm8.4-18.3C18.2 1.2 15.1 0 12 0 5.4 0 .1 5.3.1 11.9c0 2.1.5 4.1 1.6 5.9L0 24l6.3-1.7c1.7 1 3.7 1.4 5.7 1.4 6.6 0 11.9-5.3 11.9-11.9 0-3.1-1.3-6.1-3.5-8.3" fill-rule="evenodd" clip-rule="evenodd" fill="#484848"/></svg>