<?xml version="1.0" encoding="utf-8"?><svg xmlns="http://www.w3.org/2000/svg" xmlns:xlink="http://www.w3.org/1999/xlink"><symbol viewBox="0 0 7.5 5.7" id="icon-angle" xmlns="http://www.w3.org/2000/svg"><path d="M3.8 5.7L0 1.3 1.5 0l2.3 2.6L6 0l1.5 1.3z"/></symbol><symbol viewBox="0 0 7.2 9.6" id="icon-angle2" xmlns="http://www.w3.org/2000/svg"><path d="M1.2 9.6L0 8l4-3.2-4-3.2L1.2 0l6 4.8z"/></symbol><symbol viewBox="0 0 512 512" id="icon-bed" xmlns="http://www.w3.org/2000/svg"><path d="M432 230.7a79.44 79.44 0 00-32-6.7H112a79.51 79.51 0 00-32 6.69A80.09 80.09 0 0032 304v112a16 16 0 0032 0v-8a8.1 8.1 0 018-8h368a8.1 8.1 0 018 8v8a16 16 0 0032 0V304a80.09 80.09 0 00-48-73.3zM376 80H136a56 56 0 00-56 56v72a4 4 0 005.11 3.84A95.5 95.5 0 01112 208h4.23a4 4 0 004-3.55A32 32 0 01152 176h56a32 32 0 0131.8 28.45 4 4 0 004 3.55h24.46a4 4 0 004-3.55A32 32 0 01304 176h56a32 32 0 0131.8 28.45 4 4 0 004 3.55h4.2a95.51 95.51 0 0126.89 3.85A4 4 0 00432 208v-72a56 56 0 00-56-56z"/></symbol><symbol viewBox="0 0 9.4 7.6" id="icon-check" xmlns="http://www.w3.org/2000/svg"><path d="M3.2 7.6L0 4.4 1.4 3l1.8 1.8L8 0l1.4 1.4z"/></symbol><symbol viewBox="0 0 13.2 13.2" id="icon-close" xmlns="http://www.w3.org/2000/svg"><path d="M.4.4C.6.1.9 0 1.2 0s.6.1.9.4l4.4 4.4L11 .4c.2-.3.5-.4.9-.4.3 0 .6.1.9.4.2.2.4.5.4.9 0 .3-.1.6-.4.9L8.3 6.6l4.4 4.4c.2.2.4.6.4.9 0 .3-.1.6-.4.9-.2.2-.5.4-.9.4-.3 0-.6-.1-.9-.4L6.6 8.3l-4.4 4.4c-.2.2-.6.4-.9.4s-.6-.1-.9-.4c-.3-.2-.4-.5-.4-.8s.1-.6.4-.9l4.4-4.4L.4 2.1c-.3-.2-.4-.5-.4-.9S.1.6.4.4z"/></symbol><symbol viewBox="0 0 20 20" id="icon-envelope" xmlns="http://www.w3.org/2000/svg"><path d="M18 2a2 2 0 012 2v12a2 2 0 01-2 2H2a2 2 0 01-2-2V4c0-1.1.9-2 2-2h16zm-4.37 9.1L20 16v-2l-5.12-3.9L20 6V4l-10 8L0 4v2l5.12 4.1L0 14v2l6.37-4.9L10 14l3.63-2.9z"/></symbol><symbol viewBox="0 0 20 20" id="icon-expand" xmlns="http://www.w3.org/2000/svg"><path d="M7 20H1c-.1 0-.3 0-.4-.1-.1 0-.2-.1-.3-.2s-.2-.2-.2-.3c-.1-.1-.1-.3-.1-.4v-6c0-.6.4-1 1-1s1 .4 1 1v3.6l5.3-5.3c.4-.4 1-.4 1.4 0s.4 1 0 1.4L3.4 18H7c.6 0 1 .4 1 1s-.4 1-1 1zm5-11c-.3 0-.5-.1-.7-.3-.4-.4-.4-1 0-1.4L16.6 2H13c-.6 0-1-.4-1-1s.4-1 1-1h6c.1 0 .3 0 .4.1.1 0 .2.1.3.2s.2.2.2.3c.1.1.1.3.1.4v6c0 .6-.4 1-1 1s-1-.4-1-1V3.4l-5.3 5.3c-.2.2-.4.3-.7.3z"/></symbol><symbol viewBox="0 0 1920 1920" id="icon-filter" xmlns="http://www.w3.org/2000/svg"><path d="M1672.853 0L1171.84 640H748.053L426.56 213.333h637.227L1241.173 0H0l746.667 991.147V1600l426.56 320V991.147L1920 0z" fill-rule="evenodd"/></symbol><symbol viewBox="0 0 12 9.5" id="icon-menu" xmlns="http://www.w3.org/2000/svg"><path d="M11.2 9.5H.8c-.5 0-.8-.3-.8-.7S.3 8 .8 8h10.5c.4 0 .7.3.7.8s-.3.7-.8.7zm0-4H.8c-.5 0-.8-.3-.8-.7S.3 4 .8 4h10.5c.4 0 .7.3.7.8s-.3.7-.8.7zm0-4H.8c-.5 0-.8-.3-.8-.7S.3 0 .8 0h10.5c.4 0 .7.3.7.8s-.3.7-.8.7z"/></symbol><symbol viewBox="0 0 16 16" id="icon-phone" xmlns="http://www.w3.org/2000/svg"><path fill-rule="evenodd" d="M1.885.511a1.745 1.745 0 012.61.163L6.29 2.98c.329.423.445.974.315 1.494l-.547 2.19a.678.678 0 00.178.643l2.457 2.457a.678.678 0 00.644.178l2.189-.547a1.745 1.745 0 011.494.315l2.306 1.794c.829.645.905 1.87.163 2.611l-1.034 1.034c-.74.74-1.846 1.065-2.877.702a18.634 18.634 0 01-7.01-4.42 18.634 18.634 0 01-4.42-7.009c-.362-1.03-.037-2.137.703-2.877L1.885.511z"/></symbol><symbol viewBox="0 0 32 32" id="icon-pin" xmlns="http://www.w3.org/2000/svg"><path d="M4 12q0-3.264 1.6-6.016t4.384-4.352T16 0t6.016 1.632T26.4 5.984 28 12q0 1.376-.672 3.2t-1.696 3.68-2.336 3.776-2.56 3.584-2.336 2.944-1.728 2.08L16 32q-.256-.256-.672-.768t-1.696-2.016-2.368-3.008-2.528-3.52-2.368-3.84-1.696-3.616T4 12zm4 0q0 3.328 2.336 5.664T16 20t5.664-2.336T24 12t-2.336-5.632T16 4t-5.664 2.368T8 12z"/></symbol><symbol viewBox="0 0 21 25" id="icon-play" xmlns="http://www.w3.org/2000/svg"><path d="M21 12.5L.75 24.191V.81L21 12.5z"/></symbol><symbol viewBox="0 0 20.1 17.2" id="icon-tg" xmlns="http://www.w3.org/2000/svg"><path d="M18 .1c.8-.3 1.6 0 2 .8.1.3.1.5.1.8l-2.3 13.8c-.2 1.3-1.7 2.1-2.9 1.4-1-.6-2.5-1.4-3.9-2.3-.7-.4-2.8-1.9-2.5-2.9.2-.9 3.7-4.1 5.7-6.1.8-.8.4-1.2-.5-.5-2.3 1.7-6 4.4-7.2 5.1-1.1.8-1.6.9-2.3.8-1.2-.2-2.4-.5-3.3-.9-1.3-.5-1.2-2.2 0-2.7C.9 7.3 18 .1 18 .1z" fill-rule="evenodd" clip-rule="evenodd"/></symbol><symbol viewBox="0 0 24 24" id="icon-wa" xmlns="http://www.w3.org/2000/svg"><g clip-path="url(#na)"><path fill-rule="evenodd" d="M17.415 14.382c-.298-.149-1.759-.867-2.031-.967-.272-.099-.47-.148-.669.15-.198.296-.767.966-.94 1.164-.174.199-.347.223-.644.075-.297-.15-1.255-.463-2.39-1.475-.883-.788-1.48-1.761-1.653-2.059-.173-.297-.019-.458.13-.606.134-.133.297-.347.446-.52.149-.174.198-.298.297-.497.1-.198.05-.371-.025-.52-.074-.149-.668-1.612-.916-2.207-.241-.579-.486-.5-.668-.51-.174-.008-.372-.01-.57-.01-.198 0-.52.074-.792.372-.273.297-1.04 1.016-1.04 2.479 0 1.462 1.064 2.875 1.213 3.074.149.198 2.095 3.2 5.076 4.487.71.306 1.263.489 1.694.625.712.227 1.36.195 1.872.118.57-.085 1.758-.719 2.006-1.413.247-.694.247-1.289.173-1.413-.074-.124-.272-.198-.57-.347zm-5.422 7.403h-.004a9.87 9.87 0 01-5.032-1.378l-.36-.214-3.742.982.999-3.648-.235-.374a9.861 9.861 0 01-1.511-5.26c.002-5.45 4.436-9.884 9.889-9.884 2.64 0 5.122 1.03 6.988 2.898a9.825 9.825 0 012.892 6.993c-.002 5.45-4.436 9.885-9.884 9.885zm8.412-18.297A11.815 11.815 0 0011.992 0C5.438 0 .102 5.335.1 11.892a11.864 11.864 0 001.587 5.945L0 24l6.304-1.654a11.881 11.881 0 005.684 1.448h.005c6.554 0 11.89-5.335 11.892-11.893a11.821 11.821 0 00-3.48-8.413" clip-rule="evenodd"/></g><defs><clipPath id="na"><path d="M0 0h24v24H0z"/></clipPath></defs></symbol><symbol viewBox="0 0 20.1 17.2" id="icon-wapp" xmlns="http://www.w3.org/2000/svg"><path d="M18 .1c.8-.3 1.6 0 2 .8.1.3.1.5.1.8l-2.3 13.8c-.2 1.3-1.7 2.1-2.9 1.4-1-.6-2.5-1.4-3.9-2.3-.7-.4-2.8-1.9-2.5-2.9.2-.9 3.7-4.1 5.7-6.1.8-.8.4-1.2-.5-.5-2.3 1.7-6 4.4-7.2 5.1-1.1.8-1.6.9-2.3.8-1.2-.2-2.4-.5-3.3-.9-1.3-.5-1.2-2.2 0-2.7C.9 7.3 18 .1 18 .1z" fill-rule="evenodd" clip-rule="evenodd"/></symbol><symbol viewBox="0 0 20 17.3" id="icon-waves" xmlns="http://www.w3.org/2000/svg"><path d="M19 17.3c-.2 0-.3 0-.4-.1l-3.1-1.6c-.3-.1-.6-.1-.9 0l-1.4.7c-2 1-4.3 1-6.3 0l-1.4-.7c-.3-.1-.6-.1-.9 0l-3.1 1.6c-.5.2-1.1 0-1.3-.4-.2-.5 0-1.1.4-1.3l3.1-1.6c.8-.4 1.8-.4 2.7 0l1.4.7c1.4.7 3.1.7 4.5 0l1.4-.7c.8-.4 1.8-.4 2.7 0l3.1 1.6c.5.2.7.8.4 1.3-.2.3-.5.5-.9.5zm0-4.5c-.2 0-.3 0-.4-.1l-3.1-1.6c-.3-.1-.6-.1-.9 0l-1.4.7c-2 1-4.3 1-6.3 0l-1.4-.7c-.3-.1-.6-.1-.9 0l-3.1 1.6c-.5.2-1.1 0-1.3-.4-.2-.5 0-1.1.4-1.3l3.1-1.6c.8-.4 1.8-.4 2.7 0l1.4.6c1.4.7 3.1.7 4.5 0l1.4-.7c.8-.4 1.8-.4 2.7 0l3.1 1.6c.5.2.7.8.4 1.3-.2.4-.5.6-.9.6zm0-4.5c-.2 0-.3 0-.4-.1l-3.1-1.6c-.3-.1-.6-.1-.9 0l-1.4.7c-2 1-4.3 1-6.3 0l-1.5-.7c-.3-.1-.6-.1-.9 0L1.4 8.2c-.4.2-1 0-1.3-.5-.2-.5 0-1.1.4-1.3l3.1-1.6c.8-.4 1.8-.4 2.7 0l1.4.7c1.4.7 3.1.7 4.5 0l1.4-.7c.8-.4 1.8-.4 2.7 0l3.1 1.6c.5.2.7.8.4 1.3-.1.4-.4.6-.8.6zm0-4.5c-.2 0-.3 0-.4-.1l-3.1-1.6c-.3-.1-.6-.1-.9 0l-1.4.7c-2 1-4.3 1-6.3 0l-1.5-.7c-.2-.1-.6-.1-.8 0L1.4 3.7c-.4.2-1 0-1.3-.5-.2-.5 0-1.1.4-1.3L3.6.3c.8-.4 1.8-.4 2.7 0l1.5.7c1.4.7 3.1.7 4.5 0l1.4-.7c.8-.4 1.8-.4 2.7 0l3.1 1.6c.5.2.7.8.4 1.3-.2.4-.5.6-.9.6z"/></symbol><symbol viewBox="0 0 20.2 20" id="icon-world" xmlns="http://www.w3.org/2000/svg"><path d="M13.9 5.2c-1 .2-2.1.4-3.3.4v3.9h3.9c0-1.6-.2-3.1-.6-4.5v.2zM10.6 0v4.7c1.1 0 2.2-.2 3.2-.4h-.1c-.8-2.4-2-3.9-3.1-4.3zM6.5 4.3c.9.2 2 .4 3.1.4V0C8.4.3 7.2 1.9 6.5 4.3zm10.8-1.4C16 1.6 14.4.6 12.5.2h-.1c.9 1.1 1.7 2.4 2.1 3.8v.1c1.1-.3 2-.7 2.8-1.2zm-2 6.6h4.8c-.1-2.3-1-4.3-2.3-5.9-.9.5-1.9.9-3 1.3h-.1c.4 1.4.6 3 .6 4.6zm-9.6 0h3.9V5.6c-1.2 0-2.4-.2-3.5-.5h.1c-.3 1.4-.5 2.9-.5 4.4zm8.8 1h-3.9v3.9c1.2 0 2.4.2 3.5.5H14c.2-1.3.4-2.8.5-4.4zm-8.3 4.4c1-.3 2.2-.4 3.3-.5v-3.9H5.7c0 1.6.2 3.1.6 4.5l-.1-.1zM9.6 20v-4.7c-1.1 0-2.2.2-3.2.4h.1c.7 2.4 1.9 4 3.1 4.3zm2.8-.2c1.9-.5 3.6-1.4 4.8-2.7-.8-.4-1.7-.8-2.6-1.1h-.1c-.4 1.5-1.1 2.8-2.1 3.8zM7.7.2C5.8.7 4.2 1.6 2.9 3c.8.4 1.7.8 2.6 1.1h.1C6 2.6 6.8 1.3 7.7.2zm7.1 14.9c1.2.4 2.2.8 3.2 1.4h-.1c1.3-1.6 2.2-3.7 2.3-5.9h-4.8c0 1.6-.2 3.2-.6 4.7v-.2zm-4.2.2V20c1.2-.4 2.3-1.9 3.1-4.3-1-.2-2-.4-3.1-.4zM5.4 4.9c-1.2-.3-2.2-.8-3.2-1.3h.1C1 5.2.1 7.3 0 9.5h4.8c0-1.6.2-3.2.6-4.8v.2zm-.6 5.6H0c.1 2.3 1 4.3 2.3 5.9.9-.5 1.9-.9 3-1.3h.1c-.4-1.4-.6-3-.6-4.6zm-1.9 6.6c1.3 1.3 2.9 2.3 4.7 2.7h.1C6.8 18.7 6 17.4 5.6 16v-.1c-1 .4-1.9.8-2.7 1.2z"/></symbol></svg>
